<mxfile host="app.diagrams.net" agent="Mozilla/5.0 (Windows NT 10.0; Win64; x64) AppleWebKit/537.36 (KHTML, like Gecko) Chrome/131.0.0.0 Safari/537.36 Edg/131.0.0.0" version="24.7.12">
  <diagram name="Page-1" id="b520641d-4fe3-3701-9064-5fc419738815">
    <mxGraphModel dx="1050" dy="537" grid="1" gridSize="10" guides="1" tooltips="1" connect="1" arrows="1" fold="1" page="1" pageScale="1" pageWidth="1100" pageHeight="850" background="none" math="0" shadow="0">
      <root>
        <mxCell id="0" />
        <mxCell id="1" parent="0" />
        <mxCell id="sNfA3nSiCz0nSOnP9Lyy-17" style="edgeStyle=orthogonalEdgeStyle;rounded=0;orthogonalLoop=1;jettySize=auto;html=1;exitX=0.25;exitY=0;exitDx=0;exitDy=0;entryX=0.25;entryY=1;entryDx=0;entryDy=0;" edge="1" parent="1" source="sNfA3nSiCz0nSOnP9Lyy-1" target="sNfA3nSiCz0nSOnP9Lyy-4">
          <mxGeometry relative="1" as="geometry" />
        </mxCell>
        <mxCell id="sNfA3nSiCz0nSOnP9Lyy-1" value="" style="rounded=1;whiteSpace=wrap;html=1;rotation=90;" vertex="1" parent="1">
          <mxGeometry x="104" y="104" width="210" height="140" as="geometry" />
        </mxCell>
        <mxCell id="sNfA3nSiCz0nSOnP9Lyy-2" value="&lt;u&gt;Data Source&lt;/u&gt;" style="text;html=1;align=center;verticalAlign=middle;whiteSpace=wrap;rounded=0;" vertex="1" parent="1">
          <mxGeometry x="156" y="93" width="110" height="30" as="geometry" />
        </mxCell>
        <mxCell id="sNfA3nSiCz0nSOnP9Lyy-3" value="Youtube API" style="text;html=1;align=center;verticalAlign=middle;whiteSpace=wrap;rounded=0;" vertex="1" parent="1">
          <mxGeometry x="181" y="148" width="60" height="30" as="geometry" />
        </mxCell>
        <mxCell id="sNfA3nSiCz0nSOnP9Lyy-4" value="" style="rounded=1;whiteSpace=wrap;html=1;rotation=90;" vertex="1" parent="1">
          <mxGeometry x="407" y="104" width="210" height="140" as="geometry" />
        </mxCell>
        <mxCell id="sNfA3nSiCz0nSOnP9Lyy-5" value="&lt;u&gt;Raw and historical data&lt;/u&gt;" style="text;html=1;align=center;verticalAlign=middle;whiteSpace=wrap;rounded=0;" vertex="1" parent="1">
          <mxGeometry x="464" y="98" width="100" height="30" as="geometry" />
        </mxCell>
        <mxCell id="sNfA3nSiCz0nSOnP9Lyy-7" value="&lt;u&gt;Transformed data&lt;/u&gt;" style="text;html=1;align=center;verticalAlign=middle;whiteSpace=wrap;rounded=0;" vertex="1" parent="1">
          <mxGeometry x="463" y="204" width="100" height="30" as="geometry" />
        </mxCell>
        <mxCell id="sNfA3nSiCz0nSOnP9Lyy-8" value="JSON or Parquet" style="text;html=1;align=center;verticalAlign=middle;whiteSpace=wrap;rounded=0;" vertex="1" parent="1">
          <mxGeometry x="484" y="159" width="60" height="30" as="geometry" />
        </mxCell>
        <mxCell id="sNfA3nSiCz0nSOnP9Lyy-9" value="*HDFS" style="text;html=1;align=center;verticalAlign=middle;whiteSpace=wrap;rounded=0;" vertex="1" parent="1">
          <mxGeometry x="451" y="40" width="120" height="30" as="geometry" />
        </mxCell>
        <mxCell id="sNfA3nSiCz0nSOnP9Lyy-10" value="*mode pseudo-distribué en local sur mon PC pour but pédagogique" style="text;html=1;align=center;verticalAlign=middle;whiteSpace=wrap;rounded=0;" vertex="1" parent="1">
          <mxGeometry x="90" y="420" width="380" height="30" as="geometry" />
        </mxCell>
        <mxCell id="sNfA3nSiCz0nSOnP9Lyy-11" value="" style="rounded=1;whiteSpace=wrap;html=1;rotation=90;" vertex="1" parent="1">
          <mxGeometry x="703" y="105" width="210" height="140" as="geometry" />
        </mxCell>
        <mxCell id="sNfA3nSiCz0nSOnP9Lyy-12" value="&lt;u&gt;Data processing: graph construction&lt;/u&gt;" style="text;html=1;align=center;verticalAlign=middle;whiteSpace=wrap;rounded=0;" vertex="1" parent="1">
          <mxGeometry x="756" y="102" width="110" height="30" as="geometry" />
        </mxCell>
        <mxCell id="sNfA3nSiCz0nSOnP9Lyy-15" value="with GraphFrames from PySpark" style="text;html=1;align=center;verticalAlign=middle;whiteSpace=wrap;rounded=0;" vertex="1" parent="1">
          <mxGeometry x="781" y="160" width="60" height="30" as="geometry" />
        </mxCell>
        <mxCell id="sNfA3nSiCz0nSOnP9Lyy-20" value="Data collection/ingestion" style="text;html=1;align=center;verticalAlign=middle;whiteSpace=wrap;rounded=0;" vertex="1" parent="1">
          <mxGeometry x="278" y="93" width="170" height="30" as="geometry" />
        </mxCell>
        <mxCell id="sNfA3nSiCz0nSOnP9Lyy-22" style="edgeStyle=orthogonalEdgeStyle;rounded=0;orthogonalLoop=1;jettySize=auto;html=1;exitX=0.25;exitY=0;exitDx=0;exitDy=0;entryX=0.75;entryY=0;entryDx=0;entryDy=0;" edge="1" parent="1" source="sNfA3nSiCz0nSOnP9Lyy-4" target="sNfA3nSiCz0nSOnP9Lyy-4">
          <mxGeometry relative="1" as="geometry" />
        </mxCell>
        <mxCell id="sNfA3nSiCz0nSOnP9Lyy-23" value="transformation (Pyspark)" style="text;html=1;align=center;verticalAlign=middle;whiteSpace=wrap;rounded=0;" vertex="1" parent="1">
          <mxGeometry x="617" y="148" width="60" height="30" as="geometry" />
        </mxCell>
      </root>
    </mxGraphModel>
  </diagram>
</mxfile>
